<?xml version="1.0" encoding="iso-8859-1"?>
<!-- Uploaded to: SVG Repo, www.svgrepo.com, Generator: SVG Repo Mixer Tools -->
<!DOCTYPE svg PUBLIC "-//W3C//DTD SVG 1.1//EN" "http://www.w3.org/Graphics/SVG/1.1/DTD/svg11.dtd">
<svg fill="#ff5733" height="800px" width="800px" version="1.1" id="Capa_1" xmlns="http://www.w3.org/2000/svg" xmlns:xlink="http://www.w3.org/1999/xlink" 
	 viewBox="0 0 512 512" xml:space="preserve">
<g>
	<path d="M502,254.347h-6v-72v-64c0-21.266-16.683-38.703-37.648-39.925l-10.273-42.435c-3.111-12.847-16.094-20.769-28.938-17.657
		L170.07,78.627c-0.661-0.177-1.353-0.28-2.07-0.28H40c-22.056,0-40,17.944-40,40v336c0,22.056,17.944,40,40,40h416
		c22.056,0,40-17.944,40-40v-72h6c5.514,0,10-4.486,10-10v-108C512,258.833,507.514,254.347,502,254.347z M480,118.347v0.017
		c-4.012-3.019-8.609-5.295-13.586-6.638l-3.994-16.5C472.545,98.041,480,107.337,480,118.347z M40,94.347h65.136l-66.731,16.155
		c-0.042,0.008-0.082,0.021-0.123,0.03l-0.165,0.04c-0.021,0.005-0.042,0.013-0.063,0.019c-0.23,0.057-0.455,0.124-0.677,0.2
		c-0.04,0.014-0.078,0.029-0.117,0.043c-0.205,0.075-0.406,0.156-0.604,0.247c-0.056,0.026-0.11,0.053-0.165,0.079
		c-0.174,0.085-0.345,0.175-0.511,0.272c-0.069,0.04-0.137,0.082-0.205,0.125c-0.147,0.092-0.292,0.188-0.433,0.289
		c-0.075,0.054-0.148,0.109-0.221,0.165c-0.13,0.1-0.256,0.203-0.379,0.311c-0.072,0.063-0.142,0.127-0.211,0.192
		c-0.119,0.112-0.234,0.226-0.346,0.344c-0.063,0.066-0.124,0.134-0.184,0.203c-0.111,0.126-0.219,0.256-0.322,0.389
		c-0.052,0.066-0.102,0.134-0.151,0.201c-0.103,0.142-0.201,0.287-0.295,0.435c-0.042,0.066-0.082,0.133-0.122,0.201
		c-0.091,0.153-0.176,0.309-0.256,0.468c-0.036,0.072-0.07,0.144-0.104,0.216c-0.073,0.157-0.141,0.315-0.204,0.477
		c-0.033,0.085-0.064,0.171-0.094,0.257c-0.052,0.15-0.101,0.301-0.145,0.456c-0.031,0.108-0.058,0.218-0.084,0.328
		c-0.032,0.134-0.062,0.268-0.087,0.404c-0.026,0.138-0.045,0.278-0.064,0.417c-0.015,0.114-0.029,0.227-0.039,0.342
		c-0.014,0.162-0.021,0.326-0.025,0.49c-0.002,0.066-0.01,0.131-0.01,0.198c0,0.038,0.005,0.074,0.006,0.112
		c0.002,0.159,0.012,0.318,0.024,0.479c0.009,0.117,0.017,0.234,0.03,0.35c0.016,0.133,0.038,0.266,0.061,0.4
		c0.024,0.14,0.048,0.28,0.079,0.418c0.01,0.043,0.014,0.086,0.024,0.129c0.019,0.076,0.046,0.148,0.066,0.223
		c0.038,0.141,0.078,0.281,0.124,0.419c0.042,0.126,0.088,0.249,0.136,0.371c0.045,0.116,0.09,0.23,0.141,0.343
		c0.063,0.142,0.131,0.28,0.201,0.417c0.044,0.085,0.088,0.171,0.135,0.254c0.087,0.155,0.179,0.305,0.275,0.453
		c0.04,0.061,0.08,0.122,0.121,0.182c0.11,0.159,0.226,0.313,0.347,0.463c0.036,0.045,0.073,0.091,0.111,0.135
		c0.13,0.154,0.265,0.303,0.406,0.447c0.037,0.038,0.074,0.076,0.113,0.113c0.145,0.142,0.294,0.278,0.449,0.408
		c0.042,0.035,0.084,0.07,0.127,0.105c0.155,0.125,0.314,0.245,0.479,0.358c0.048,0.034,0.097,0.067,0.146,0.099
		c0.165,0.109,0.334,0.211,0.506,0.308c0.052,0.029,0.104,0.057,0.156,0.085c0.178,0.094,0.36,0.181,0.545,0.262
		c0.049,0.021,0.098,0.043,0.148,0.063c0.197,0.082,0.397,0.154,0.601,0.22c0.039,0.012,0.078,0.025,0.117,0.037
		c0.223,0.068,0.448,0.126,0.677,0.174c0.022,0.004,0.043,0.01,0.065,0.014c0.25,0.051,0.503,0.089,0.758,0.116
		c0.005,0,0.01,0.001,0.015,0.002c0.266,0.027,0.534,0.041,0.805,0.041c0.002,0,0.005,0,0.007,0h0.02c0.1,0,0.198,0.004,0.298,0H416
		c4.418,0,8-3.582,8-8s-3.582-8-8-8H107.065L422.905,33.88c4.273-1.037,8.589,1.6,9.623,5.872l17.089,70.59h-1.613
		c-4.418,0-8,3.582-8,8s3.582,8,8,8H456c0.805,0,1.601,0.042,2.386,0.119c0.31,0.058,0.625,0.096,0.943,0.117
		c11.663,1.626,20.671,11.66,20.671,23.764v0.027c-6.69-5.034-15.002-8.022-24-8.022H40c-13.234,0-24-10.767-24-24
		S26.767,94.347,40,94.347z M480,454.347c0,13.233-10.766,24-24,24H40c-13.234,0-24-10.767-24-24V150.325
		c6.69,5.034,15.002,8.022,24,8.022h416c13.233,0,24,10.767,24,24v72H363.002c-6.066,0-11.002,4.936-11.002,11.002v105.996
		c0,6.066,4.936,11.002,11.002,11.002H480V454.347z M496,366.347H368v-96h119.884c0.039,0,0.077,0.006,0.116,0.006
		s0.077-0.005,0.116-0.006H496V366.347z"/>
	<path d="M432,310.347c-4.418,0-8,3.582-8,8c0,4.411-3.589,8-8,8s-8-3.589-8-8s3.589-8,8-8c4.418,0,8-3.582,8-8s-3.582-8-8-8
		c-13.234,0-24,10.767-24,24s10.766,24,24,24s24-10.767,24-24C440,313.929,436.418,310.347,432,310.347z"/>
</g>
</svg>